<svg xmlns="http://www.w3.org/2000/svg" version="1.1" xmlns:xlink="http://www.w3.org/1999/xlink" xmlns:svgjs="http://svgjs.dev/svgjs" width="2000" height="1250" viewBox="0 0 2000 1250"><g transform="matrix(1,0,0,1,0,0)"><svg viewBox="0 0 512 320" data-background-color="#ffffff" preserveAspectRatio="xMidYMid meet" height="1250" width="2000" xmlns="http://www.w3.org/2000/svg" xmlns:xlink="http://www.w3.org/1999/xlink"><g id="tight-bounds" transform="matrix(1,0,0,1,0,0)"><svg viewBox="0 0 512 320" height="320" width="512"><g><svg></svg></g><g><svg viewBox="0 0 512 320" height="320" width="512"><g><path xmlns="http://www.w3.org/2000/svg" d="M96 160c0-88.366 71.634-160 160-160 88.366 0 160 71.634 160 160 0 88.366-71.634 160-160 160-88.366 0-160-71.634-160-160z" fill="#ff0000" fill-rule="nonzero" stroke="none" stroke-width="1" stroke-linecap="butt" stroke-linejoin="miter" stroke-miterlimit="10" stroke-dasharray="" stroke-dashoffset="0" font-family="none" font-weight="none" font-size="none" text-anchor="none" style="mix-blend-mode: normal" data-fill-palette-color="tertiary"></path></g><g transform="matrix(1,0,0,1,214.41860465116278,80)"><svg viewBox="0 0 83.16279069767442 160" height="160" width="83.16279069767442"><g><svg viewBox="0 0 83.16279069767442 160" height="160" width="83.16279069767442"><g><svg viewBox="0 0 83.16279069767442 160" height="160" width="83.16279069767442"><g><svg viewBox="0 0 83.16279069767442 160" height="160" width="83.16279069767442"><g id="textblocktransform"><svg viewBox="0 0 83.16279069767442 160" height="160" width="83.16279069767442" id="textblock"><g><svg viewBox="0 0 83.16279069767442 160" height="160" width="83.16279069767442"><g transform="matrix(1,0,0,1,0,0)"><svg width="83.16279069767442" viewBox="0.550000011920929 -43 22.350000381469727 43" height="160" data-palette-color="#ffffff"><path d="M17.6 0L5.85 0 0.55-43 8.75-43 11.9-13.75 14.7-43 22.9-43 17.6 0Z" opacity="1" transform="matrix(1,0,0,1,0,0)" fill="#ffffff" class="wordmark-text-0" data-fill-palette-color="quaternary" id="text-0"></path></svg></g></svg></g></svg></g></svg></g><g></g></svg></g></svg></g></svg></g></svg></g><defs></defs></svg><rect width="512" height="320" fill="none" stroke="none" visibility="hidden"></rect></g></svg></g></svg>